# xmcd
#
# Track frame offsets:
#	150
#	14573
#	36836
#	48756
#	63784
#	71756
#	92555
#	110102
#	119410
#	133739
#	153897
#	173001
#	197263
#	210722
#	224931
#	243057
#	256738
#	277688
#	290149
#
# Disc length: 4108 seconds
#
# Revision: 1
# Processed by: cddbd v1.5.1PL0 Copyright (c) Steve Scherf et al.
# Submitted via: audiograbber 1.83.01
#
DISCID=14100a13
DTITLE=Tracy Chapman - The Millenium Collection
DYEAR=2001
DGENRE=
TTITLE0=Baby Can I Hold You
TTITLE1=Fast Car
TTITLE2=Talking About A Revolution
TTITLE3=Across The Lines
TTITLE4=Behind The Wall
TTITLE5=Mountains Of Things
TTITLE6=She's Got Her Ticket
TTITLE7=Why
TTITLE8=For My Lover
TTITLE9=Give Me One Reason
TTITLE10=Crossroads
TTITLE11=Bridges
TTITLE12=If Not Now
TTITLE13=For You
TTITLE14=Freedom Now
TTITLE15=Material World
TTITLE16=Be Careful Of My Heart
TTITLE17=Born To Fly
TTITLE18=Telling History
EXTD=
EXTT0=
EXTT1=
EXTT2=
EXTT3=
EXTT4=
EXTT5=
EXTT6=
EXTT7=
EXTT8=
EXTT9=
EXTT10=
EXTT11=
EXTT12=
EXTT13=
EXTT14=
EXTT15=
EXTT16=
EXTT17=
EXTT18=
PLAYORDER=
